<svg width="64" height="64" viewBox="0 0 64 64" fill="none" xmlns="http://www.w3.org/2000/svg">
<path d="M41 53H21C22.0609 53 23.0783 53.4214 23.8284 54.1716C24.5786 54.9217 25 55.9391 25 57H37C37 55.9391 37.4214 54.9217 38.1716 54.1716C38.9217 53.4214 39.9391 53 41 53Z" fill="#323884"/>
<path d="M41 53C42.0609 53 43.0783 53.4214 43.8284 54.1716C44.5786 54.9217 45 55.9391 45 57H49C49.5299 56.9984 50.0377 56.7872 50.4125 56.4125C50.7872 56.0377 50.9984 55.5299 51 55V53H41Z" fill="#323884"/>
<path d="M21 53H13V55C13.0016 55.5299 13.2128 56.0377 13.5875 56.4125C13.9623 56.7872 14.4701 56.9984 15 57H17C17 55.9391 17.4214 54.9217 18.1716 54.1716C18.9217 53.4214 19.9391 53 21 53Z" fill="#323884"/>
<path d="M33 49H27V53H41H45H51V49H45H33Z" fill="#323884"/>
<path d="M27 53V49V39H23V47H13V53H21H27Z" fill="#323884"/>
<path d="M45 39H41V43L39 42L37 43V39H33V49H45V39Z" fill="#323884"/>
<path d="M9 26V17H7V14H25V17H23V29H29V9L16 3L3 9V29H9V26ZM16 7C16.3956 7 16.7822 7.1173 17.1111 7.33706C17.44 7.55682 17.6964 7.86918 17.8478 8.23463C17.9991 8.60009 18.0387 9.00222 17.9616 9.39018C17.8844 9.77814 17.6939 10.1345 17.4142 10.4142C17.1345 10.6939 16.7781 10.8844 16.3902 10.9616C16.0022 11.0387 15.6001 10.9991 15.2346 10.8478C14.8692 10.6964 14.5568 10.44 14.3371 10.1111C14.1173 9.78224 14 9.39556 14 9C14 8.46957 14.2107 7.96086 14.5858 7.58579C14.9609 7.21071 15.4696 7 16 7Z" fill="#323884"/>
<path d="M35 9V29H41V17H39V14H57V17H55V29H61V9L48 3L35 9ZM50 9C50 9.39556 49.8827 9.78224 49.6629 10.1111C49.4432 10.44 49.1308 10.6964 48.7654 10.8478C48.3999 10.9991 47.9978 11.0387 47.6098 10.9616C47.2219 10.8844 46.8655 10.6939 46.5858 10.4142C46.3061 10.1345 46.1156 9.77814 46.0384 9.39018C45.9613 9.00222 46.0009 8.60009 46.1522 8.23463C46.3036 7.86918 46.56 7.55682 46.8889 7.33706C47.2178 7.1173 47.6044 7 48 7C48.5304 7 49.0391 7.21071 49.4142 7.58579C49.7893 7.96086 50 8.46957 50 9Z" fill="#323884"/>
<path d="M51 32H27C26.7348 32 26.4804 32.1054 26.2929 32.2929C26.1054 32.4804 26 32.7348 26 33V38H17C16.815 37.9992 16.6336 38.0503 16.4762 38.1475C16.3189 38.2448 16.192 38.3842 16.11 38.55L12.11 46.55C12.1062 46.554 12.1034 46.5587 12.1016 46.5639C12.0999 46.5691 12.0993 46.5746 12.1 46.58C12.0365 46.7111 12.0024 46.8544 12 47V55C12.0024 55.7949 12.3192 56.5566 12.8813 57.1187C13.4434 57.6808 14.2051 57.9976 15 58H16.1C16.3295 59.1303 16.9427 60.1465 17.8357 60.8764C18.7288 61.6063 19.8466 62.005 21 62.005C22.1534 62.005 23.2712 61.6063 24.1643 60.8764C25.0573 60.1465 25.6705 59.1303 25.9 58H36.1C36.3295 59.1303 36.9427 60.1465 37.8357 60.8764C38.7288 61.6063 39.8466 62.005 41 62.005C42.1534 62.005 43.2712 61.6063 44.1643 60.8764C45.0573 60.1465 45.6705 59.1303 45.9 58H49C49.7949 57.9976 50.5566 57.6808 51.1187 57.1187C51.6808 56.5566 51.9976 55.7949 52 55V33C52 32.7348 51.8946 32.4804 51.7071 32.2929C51.5196 32.1054 51.2652 32 51 32ZM17.62 40H22V46H14.62L17.62 40ZM16.1 56H15C14.7348 56 14.4804 55.8946 14.2929 55.7071C14.1054 55.5196 14 55.2652 14 55V54H17.03C16.5702 54.5862 16.2519 55.2706 16.1 56ZM21 60C20.4067 60 19.8266 59.8241 19.3333 59.4944C18.8399 59.1648 18.4554 58.6962 18.2284 58.148C18.0013 57.5999 17.9419 56.9967 18.0576 56.4147C18.1734 55.8328 18.4591 55.2982 18.8787 54.8787C19.2982 54.4591 19.8328 54.1734 20.4147 54.0576C20.9967 53.9419 21.5999 54.0013 22.1481 54.2284C22.6962 54.4554 23.1648 54.8399 23.4944 55.3333C23.8241 55.8266 24 56.4067 24 57C23.9976 57.7949 23.6808 58.5566 23.1187 59.1187C22.5566 59.6808 21.7949 59.9976 21 60ZM14 52V48H23C23.2652 48 23.5196 47.8946 23.7071 47.7071C23.8946 47.5196 24 47.2652 24 47V40H26V52H14ZM36.1 56H25.9C25.7481 55.2706 25.4298 54.5862 24.97 54H37.03C36.5702 54.5862 36.2519 55.2706 36.1 56ZM41 60C40.4067 60 39.8266 59.8241 39.3333 59.4944C38.8399 59.1648 38.4554 58.6962 38.2284 58.148C38.0013 57.5999 37.9419 56.9967 38.0576 56.4147C38.1734 55.8328 38.4591 55.2982 38.8787 54.8787C39.2982 54.4591 39.8328 54.1734 40.4147 54.0576C40.9967 53.9419 41.5999 54.0013 42.148 54.2284C42.6962 54.4554 43.1648 54.8399 43.4944 55.3333C43.8241 55.8266 44 56.4067 44 57C43.9976 57.7949 43.6808 58.5566 43.1187 59.1187C42.5566 59.6808 41.7949 59.9976 41 60ZM50 55C50 55.2652 49.8946 55.5196 49.7071 55.7071C49.5196 55.8946 49.2652 56 49 56H45.9C45.7481 55.2706 45.4298 54.5862 44.97 54H50V55ZM50 52H28V50H50V52ZM36.47 43.85C36.6164 43.9396 36.7833 43.9904 36.9548 43.9974C37.1263 44.0044 37.2968 43.9674 37.45 43.89L39 43.12L40.55 43.89C40.6897 43.9604 40.8436 43.998 41 44C41.1871 43.9999 41.3706 43.9479 41.53 43.85C41.6741 43.7599 41.7929 43.6346 41.8751 43.4859C41.9574 43.3372 42.0003 43.1699 42 43V40H44V48H34V40H36V43C35.9997 43.1699 36.0426 43.3372 36.1249 43.4859C36.2071 43.6346 36.3259 43.7599 36.47 43.85ZM38 41.38V40H40V41.38L39.45 41.11C39.311 41.0377 39.1567 40.9999 39 40.9999C38.8433 40.9999 38.689 41.0377 38.55 41.11L38 41.38ZM50 48H46V39C46 38.7348 45.8946 38.4804 45.7071 38.2929C45.5196 38.1054 45.2652 38 45 38H33C32.7348 38 32.4804 38.1054 32.2929 38.2929C32.1054 38.4804 32 38.7348 32 39V48H28V34H50V48Z" fill="#070D59"/>
<path d="M29.42 8.09L16.42 2.09C16.2879 2.03067 16.1448 2 16 2C15.8552 2 15.7121 2.03067 15.58 2.09L2.58 8.09C2.40761 8.1719 2.26178 8.30069 2.1592 8.46163C2.05662 8.62257 2.00145 8.80915 2 9V29C2 29.2652 2.10536 29.5196 2.29289 29.7071C2.48043 29.8946 2.73478 30 3 30H29C29.2652 30 29.5196 29.8946 29.7071 29.7071C29.8946 29.5196 30 29.2652 30 29V9C29.9986 8.80915 29.9434 8.62257 29.8408 8.46163C29.7382 8.30069 29.5924 8.1719 29.42 8.09ZM22 28H10V27H22V28ZM22 25H10V24H22V25ZM22 22H10V21H22V22ZM22 19H10V18H22V19ZM8 16V15H24V16H8ZM28 28H24V18H25C25.2652 18 25.5196 17.8946 25.7071 17.7071C25.8946 17.5196 26 17.2652 26 17V14C26 13.7348 25.8946 13.4804 25.7071 13.2929C25.5196 13.1054 25.2652 13 25 13H7C6.73478 13 6.48043 13.1054 6.29289 13.2929C6.10536 13.4804 6 13.7348 6 14V17C6 17.2652 6.10536 17.5196 6.29289 17.7071C6.48043 17.8946 6.73478 18 7 18H8V28H4V9.64L16 4.1L28 9.64V28Z" fill="#070D59"/>
<path d="M16 12C16.5933 12 17.1734 11.8241 17.6667 11.4944C18.1601 11.1648 18.5446 10.6962 18.7716 10.1481C18.9987 9.59987 19.0581 8.99667 18.9424 8.41473C18.8266 7.83279 18.5409 7.29824 18.1213 6.87868C17.7018 6.45912 17.1672 6.1734 16.5853 6.05765C16.0033 5.94189 15.4001 6.0013 14.8519 6.22836C14.3038 6.45543 13.8352 6.83994 13.5056 7.33329C13.1759 7.82664 13 8.40666 13 9C13 9.79565 13.3161 10.5587 13.8787 11.1213C14.4413 11.6839 15.2044 12 16 12ZM16 8C16.1978 8 16.3911 8.05865 16.5556 8.16853C16.72 8.27841 16.8482 8.43459 16.9239 8.61732C16.9996 8.80004 17.0194 9.00111 16.9808 9.19509C16.9422 9.38907 16.847 9.56726 16.7071 9.70711C16.5673 9.84696 16.3891 9.9422 16.1951 9.98079C16.0011 10.0194 15.8 9.99957 15.6173 9.92388C15.4346 9.84819 15.2784 9.72002 15.1685 9.55557C15.0586 9.39112 15 9.19778 15 9C15 8.73478 15.1054 8.48043 15.2929 8.29289C15.4804 8.10536 15.7348 8 16 8Z" fill="#070D59"/>
<path d="M61.42 8.09L48.42 2.09C48.2879 2.03067 48.1448 2 48 2C47.8552 2 47.7121 2.03067 47.58 2.09L34.58 8.09C34.4076 8.1719 34.2618 8.30069 34.1592 8.46163C34.0566 8.62257 34.0014 8.80915 34 9V29C34 29.2652 34.1054 29.5196 34.2929 29.7071C34.4804 29.8946 34.7348 30 35 30H61C61.2652 30 61.5196 29.8946 61.7071 29.7071C61.8946 29.5196 62 29.2652 62 29V9C61.9986 8.80915 61.9434 8.62257 61.8408 8.46163C61.7382 8.30069 61.5924 8.1719 61.42 8.09ZM54 28H42V27H54V28ZM54 25H42V24H54V25ZM54 22H42V21H54V22ZM54 19H42V18H54V19ZM40 16V15H56V16H40ZM60 28H56V18H57C57.2652 18 57.5196 17.8946 57.7071 17.7071C57.8946 17.5196 58 17.2652 58 17V14C58 13.7348 57.8946 13.4804 57.7071 13.2929C57.5196 13.1054 57.2652 13 57 13H39C38.7348 13 38.4804 13.1054 38.2929 13.2929C38.1054 13.4804 38 13.7348 38 14V17C38 17.2652 38.1054 17.5196 38.2929 17.7071C38.4804 17.8946 38.7348 18 39 18H40V28H36V9.64L48 4.1L60 9.64V28Z" fill="#070D59"/>
<path d="M45 9C45 9.59334 45.1759 10.1734 45.5056 10.6667C45.8352 11.1601 46.3038 11.5446 46.852 11.7716C47.4001 11.9987 48.0033 12.0581 48.5853 11.9424C49.1672 11.8266 49.7018 11.5409 50.1213 11.1213C50.5409 10.7018 50.8266 10.1672 50.9424 9.58527C51.0581 9.00333 50.9987 8.40013 50.7716 7.85195C50.5446 7.30377 50.1601 6.83524 49.6667 6.50559C49.1734 6.17595 48.5933 6 48 6C47.2044 6 46.4413 6.31607 45.8787 6.87868C45.3161 7.44129 45 8.20435 45 9ZM49 9C49 9.19778 48.9414 9.39112 48.8315 9.55557C48.7216 9.72002 48.5654 9.84819 48.3827 9.92388C48.2 9.99957 47.9989 10.0194 47.8049 9.98079C47.6109 9.9422 47.4327 9.84696 47.2929 9.70711C47.153 9.56725 47.0578 9.38907 47.0192 9.19509C46.9806 9.00111 47.0004 8.80004 47.0761 8.61732C47.1518 8.43459 47.28 8.27841 47.4444 8.16853C47.6089 8.05865 47.8022 8 48 8C48.2652 8 48.5196 8.10536 48.7071 8.29289C48.8946 8.48043 49 8.73478 49 9Z" fill="#070D59"/>
<path d="M59 32C58.7348 32 58.4804 32.1054 58.2929 32.2929C58.1054 32.4804 58 32.7348 58 33V42H55C54.7348 42 54.4804 42.1054 54.2929 42.2929C54.1054 42.4804 54 42.7348 54 43C54 43.2652 54.1054 43.5196 54.2929 43.7071C54.4804 43.8946 54.7348 44 55 44H59C59.2652 44 59.5196 43.8946 59.7071 43.7071C59.8946 43.5196 60 43.2652 60 43V33C60 32.7348 59.8946 32.4804 59.7071 32.2929C59.5196 32.1054 59.2652 32 59 32Z" fill="#070D59"/>
<path d="M11 42H6V33C6 32.7348 5.89464 32.4804 5.70711 32.2929C5.51957 32.1054 5.26522 32 5 32C4.73478 32 4.48043 32.1054 4.29289 32.2929C4.10536 32.4804 4 32.7348 4 33V43C4 43.2652 4.10536 43.5196 4.29289 43.7071C4.48043 43.8946 4.73478 44 5 44H11C11.2652 44 11.5196 43.8946 11.7071 43.7071C11.8946 43.5196 12 43.2652 12 43C12 42.7348 11.8946 42.4804 11.7071 42.2929C11.5196 42.1054 11.2652 42 11 42Z" fill="#070D59"/>
</svg>
