<svg width="64" height="64" viewBox="0 0 64 64" fill="none" xmlns="http://www.w3.org/2000/svg">
<path d="M35 33H53V3H34V17L31 15L28 17L25 15L22 17V3H3V51H33V35C33 34.4696 33.2107 33.9609 33.5858 33.5858C33.9609 33.2107 34.4696 33 35 33ZM16 36V45H12V36H9L14 29L19 36H16Z" fill="#323884"/>
<path d="M14.814 28.419C14.7169 28.296 14.5932 28.1966 14.4523 28.1283C14.3113 28.06 14.1566 28.0245 14 28.0245C13.8433 28.0245 13.6887 28.06 13.5477 28.1283C13.4067 28.1966 13.283 28.296 13.186 28.419L8.18597 35.419C8.07923 35.5685 8.01575 35.7446 8.00249 35.9278C7.98923 36.1111 8.0267 36.2944 8.1108 36.4578C8.1949 36.6211 8.32237 36.7581 8.47922 36.8538C8.63608 36.9494 8.81625 37 8.99997 37H11V45C11 45.2652 11.1053 45.5196 11.2929 45.7071C11.4804 45.8946 11.7348 46 12 46H16C16.2652 46 16.5195 45.8946 16.7071 45.7071C16.8946 45.5196 17 45.2652 17 45V37H19C19.1837 37 19.3639 36.9494 19.5207 36.8538C19.6776 36.7581 19.8051 36.6211 19.8892 36.4578C19.9732 36.2944 20.0107 36.1111 19.9975 35.9278C19.9842 35.7446 19.9207 35.5685 19.814 35.419L14.814 28.419ZM16 35C15.7348 35 15.4804 35.1054 15.2929 35.2929C15.1053 35.4804 15 35.7348 15 36V44H13V36C13 35.7348 12.8946 35.4804 12.7071 35.2929C12.5195 35.1054 12.2652 35 12 35H10.943L14 30.721L17.057 35H16Z" fill="#070D59"/>
<path d="M59 32H54V3C54 2.73478 53.8946 2.48043 53.7071 2.29289C53.5196 2.10536 53.2652 2 53 2H3C2.73478 2 2.48043 2.10536 2.29289 2.29289C2.10536 2.48043 2 2.73478 2 3V51C2 51.2652 2.10536 51.5196 2.29289 51.7071C2.48043 51.8946 2.73478 52 3 52H32V59C32.0024 59.7949 32.3192 60.5566 32.8813 61.1187C33.4434 61.6808 34.2051 61.9976 35 62H59C59.7949 61.9976 60.5566 61.6808 61.1187 61.1187C61.6808 60.5566 61.9976 59.7949 62 59V35C61.9976 34.2051 61.6808 33.4434 61.1187 32.8813C60.5566 32.3192 59.7949 32.0024 59 32ZM23 4H33V15.13L31.55 14.17C31.3886 14.0577 31.1966 13.9975 31 13.9975C30.8034 13.9975 30.6114 14.0577 30.45 14.17L28 15.8L25.55 14.17C25.3879 14.0593 25.1963 14.0001 25 14.0001C24.8037 14.0001 24.6121 14.0593 24.45 14.17L23 15.13V4ZM32 35V50H4V4H21V17C20.9987 17.1813 21.0475 17.3594 21.141 17.5147C21.2346 17.6699 21.3692 17.7964 21.53 17.88C21.6876 17.9681 21.8668 18.0102 22.0472 18.0013C22.2275 17.9925 22.4018 17.9331 22.55 17.83L25 16.2L27.45 17.83C27.6114 17.9423 27.8034 18.0025 28 18.0025C28.1966 18.0025 28.3886 17.9423 28.55 17.83L31 16.2L33.45 17.83C33.6004 17.929 33.7748 17.9856 33.9547 17.9938C34.1346 18.002 34.3133 17.9614 34.4721 17.8764C34.6308 17.7914 34.7637 17.6651 34.8566 17.5108C34.9495 17.3566 34.9991 17.1801 35 17V4H52V32H35C34.2051 32.0024 33.4434 32.3192 32.8813 32.8813C32.3192 33.4434 32.0024 34.2051 32 35ZM60 59C60 59.2652 59.8946 59.5196 59.7071 59.7071C59.5196 59.8946 59.2652 60 59 60H35C34.7348 60 34.4804 59.8946 34.2929 59.7071C34.1054 59.5196 34 59.2652 34 59V35C34 34.7348 34.1054 34.4804 34.2929 34.2929C34.4804 34.1054 34.7348 34 35 34H59C59.2652 34 59.5196 34.1054 59.7071 34.2929C59.8946 34.4804 60 34.7348 60 35V59Z" fill="#070D59"/>
<path d="M45 53H38.732L41.159 48.8L41.569 50.331C41.6258 50.5436 41.7511 50.7316 41.9256 50.8657C42.1001 50.9999 42.3139 51.0728 42.534 51.073C42.6219 51.0731 42.7093 51.0613 42.794 51.038C43.05 50.9693 43.2683 50.8018 43.4008 50.5723C43.5334 50.3428 43.5694 50.0701 43.501 49.814L42.466 45.95C42.432 45.8231 42.3734 45.7042 42.2934 45.6C42.2134 45.4958 42.1137 45.4084 42 45.3428C41.8862 45.2771 41.7606 45.2345 41.6304 45.2174C41.5002 45.2003 41.3679 45.209 41.241 45.243L37.378 46.278C37.1218 46.3467 36.9034 46.5143 36.7708 46.7441C36.6382 46.9738 36.6023 47.2468 36.671 47.503C36.7397 47.7592 36.9074 47.9776 37.1371 48.1102C37.3668 48.2428 37.6398 48.2787 37.896 48.21L39.427 47.8L37 52C36.8245 52.304 36.7321 52.6489 36.7321 53C36.7321 53.3511 36.8245 53.6959 37 54C37.1755 54.304 37.428 54.5565 37.732 54.732C38.0361 54.9076 38.381 55 38.732 55H45C45.2652 55 45.5196 54.8946 45.7071 54.7071C45.8947 54.5196 46 54.2652 46 54C46 53.7348 45.8947 53.4804 45.7071 53.2929C45.5196 53.1054 45.2652 53 45 53Z" fill="#070D59"/>
<path d="M58 54C57.827 54.3058 57.5754 54.5598 57.2712 54.7356C56.967 54.9115 56.6213 55.0027 56.27 55H51.41L52.54 56.12C52.7273 56.3088 52.8325 56.564 52.8325 56.83C52.8325 57.096 52.7273 57.3512 52.54 57.54C52.3488 57.7234 52.0949 57.8271 51.83 57.83C51.5647 57.829 51.3101 57.725 51.12 57.54L48.29 54.71C48.1026 54.5212 47.9975 54.266 47.9975 54C47.9975 53.734 48.1026 53.4788 48.29 53.29L51.12 50.46C51.3083 50.2717 51.5637 50.1659 51.83 50.1659C52.0963 50.1659 52.3517 50.2717 52.54 50.46C52.7283 50.6483 52.8341 50.9037 52.8341 51.17C52.8341 51.4363 52.7283 51.6917 52.54 51.88L51.41 53H56.27L53.13 47.57C52.9974 47.3393 52.9619 47.0653 53.0312 46.8084C53.1006 46.5514 53.2692 46.3326 53.5 46.2C53.7307 46.0674 54.0047 46.0319 54.2616 46.1013C54.5185 46.1707 54.7374 46.3393 54.87 46.57L58 52C58.1768 52.3036 58.27 52.6487 58.27 53C58.27 53.3513 58.1768 53.6964 58 54Z" fill="#070D59"/>
<path d="M51.5 44.794C51.7201 44.794 51.9341 44.7214 52.1087 44.5875C52.2834 44.4535 52.409 44.2656 52.466 44.053L53.5 40.189C53.5671 39.9333 53.5303 39.6613 53.3975 39.4327C53.2647 39.2041 53.0467 39.0373 52.7913 38.969C52.5359 38.9006 52.2638 38.9362 52.0345 39.068C51.8053 39.1997 51.6375 39.4169 51.568 39.672L51.158 41.203L48.732 37C48.5564 36.696 48.304 36.4435 47.9999 36.268C47.6959 36.0925 47.351 36.0001 47 36.0001C46.6489 36.0001 46.3041 36.0925 46 36.268C45.696 36.4435 45.4435 36.696 45.268 37L42.134 42.428C42.0035 42.6576 41.969 42.9294 42.0382 43.1843C42.1074 43.4391 42.2746 43.6562 42.5033 43.7883C42.732 43.9203 43.0036 43.9565 43.2589 43.889C43.5142 43.8215 43.7324 43.6558 43.866 43.428L47 38L49.427 42.2L47.896 41.79C47.7691 41.756 47.6368 41.7473 47.5066 41.7644C47.3764 41.7815 47.2508 41.8241 47.1371 41.8898C47.0233 41.9554 46.9236 42.0429 46.8436 42.147C46.7637 42.2512 46.705 42.3701 46.671 42.497C46.637 42.6239 46.6283 42.7562 46.6454 42.8864C46.6625 43.0166 46.7051 43.1422 46.7708 43.2559C46.8364 43.3697 46.9238 43.4694 47.028 43.5494C47.1322 43.6293 47.2511 43.688 47.378 43.722L51.241 44.757C51.3253 44.7807 51.4124 44.7932 51.5 44.794Z" fill="#070D59"/>
</svg>
