<svg width="64" height="64" viewBox="0 0 64 64" fill="none" xmlns="http://www.w3.org/2000/svg">
<path d="M22 51V55L20 54L18 55V51H14V61H26V51H22Z" fill="#323884"/>
<path d="M34 51V55L32 54L30 55V51H26V61H38V51H34Z" fill="#323884"/>
<path d="M26 41V51H14V41H18V45L20 44L22 45V41H26Z" fill="#323884"/>
<path d="M38 41V51H26V41H30V45L32 44L34 45V41H38Z" fill="#323884"/>
<path d="M46 55L44 54L42 55V51H38V61H50V51H46V55Z" fill="#323884"/>
<path d="M50 41V51H38V41H42V45L44 44L46 45V41H50Z" fill="#323884"/>
<path d="M16 3L3 9V29H9V17H7V14H25V17H23V29H29V9L16 3ZM16 11C15.6044 11 15.2178 10.8827 14.8889 10.6629C14.56 10.4432 14.3036 10.1308 14.1522 9.76537C14.0009 9.39991 13.9613 8.99778 14.0384 8.60982C14.1156 8.22186 14.3061 7.86549 14.5858 7.58579C14.8655 7.30608 15.2219 7.1156 15.6098 7.03843C15.9978 6.96126 16.3999 7.00087 16.7654 7.15224C17.1308 7.30362 17.4432 7.55996 17.6629 7.88886C17.8827 8.21776 18 8.60444 18 9C17.9984 9.52995 17.7872 10.0377 17.4125 10.4125C17.0377 10.7872 16.5299 10.9984 16 11Z" fill="#323884"/>
<path d="M48 3L35 9V29H41V17H39V14H57V17H55V29H61V9L48 3ZM48 11C47.6044 11 47.2178 10.8827 46.8889 10.6629C46.56 10.4432 46.3036 10.1308 46.1522 9.76537C46.0009 9.39991 45.9613 8.99778 46.0384 8.60982C46.1156 8.22186 46.3061 7.86549 46.5858 7.58579C46.8655 7.30608 47.2219 7.1156 47.6098 7.03843C47.9978 6.96126 48.3999 7.00087 48.7654 7.15224C49.1308 7.30362 49.4432 7.55996 49.6629 7.88886C49.8827 8.21776 50 8.60444 50 9C49.9984 9.52995 49.7872 10.0377 49.4125 10.4125C49.0377 10.7872 48.5299 10.9984 48 11Z" fill="#323884"/>
<path d="M50 40H14C13.7348 40 13.4804 40.1054 13.2929 40.2929C13.1054 40.4804 13 40.7348 13 41V61C13 61.2652 13.1054 61.5196 13.2929 61.7071C13.4804 61.8946 13.7348 62 14 62H50C50.2652 62 50.5196 61.8946 50.7071 61.7071C50.8946 61.5196 51 61.2652 51 61V41C51 40.7348 50.8946 40.4804 50.7071 40.2929C50.5196 40.1054 50.2652 40 50 40ZM19 42H21V43.38L20.45 43.11C20.311 43.0377 20.1567 42.9999 20 42.9999C19.8433 42.9999 19.689 43.0377 19.55 43.11L19 43.38V42ZM25 60H15V52H17V55C17.0005 55.1705 17.0446 55.338 17.1281 55.4866C17.2115 55.6352 17.3316 55.7601 17.4769 55.8492C17.6222 55.9384 17.7878 55.989 17.9581 55.9961C18.1285 56.0032 18.2978 55.9667 18.45 55.89L20 55.12L21.55 55.89C21.6897 55.9604 21.8436 55.998 22 56C22.1871 55.9999 22.3706 55.9479 22.53 55.85C22.6741 55.7599 22.7929 55.6346 22.8751 55.4859C22.9574 55.3372 23.0003 55.1699 23 55V52H25V60ZM19 53.38V52H21V53.38L20.45 53.11C20.311 53.0377 20.1567 52.9999 20 52.9999C19.8433 52.9999 19.689 53.0377 19.55 53.11L19 53.38ZM25 50H15V42H17V45C17.0005 45.1705 17.0446 45.338 17.1281 45.4866C17.2115 45.6352 17.3316 45.7601 17.4769 45.8492C17.6222 45.9384 17.7878 45.989 17.9581 45.9961C18.1285 46.0032 18.2978 45.9667 18.45 45.89L20 45.12L21.55 45.89C21.6897 45.9604 21.8436 45.998 22 46C22.1871 45.9999 22.3706 45.9479 22.53 45.85C22.6741 45.7599 22.7929 45.6346 22.8751 45.4859C22.9574 45.3372 23.0003 45.1699 23 45V42H25V50ZM31 42H33V43.38L32.45 43.11C32.311 43.0377 32.1567 42.9999 32 42.9999C31.8433 42.9999 31.689 43.0377 31.55 43.11L31 43.38V42ZM37 60H27V52H29V55C29.0005 55.1705 29.0446 55.338 29.1281 55.4866C29.2115 55.6352 29.3316 55.7601 29.4769 55.8492C29.6222 55.9384 29.7878 55.989 29.9581 55.9961C30.1285 56.0032 30.2978 55.9667 30.45 55.89L32 55.12L33.55 55.89C33.6897 55.9604 33.8436 55.998 34 56C34.1871 55.9999 34.3706 55.9479 34.53 55.85C34.6741 55.7599 34.7929 55.6346 34.8751 55.4859C34.9574 55.3372 35.0003 55.1699 35 55V52H37V60ZM31 53.38V52H33V53.38L32.45 53.11C32.311 53.0377 32.1567 52.9999 32 52.9999C31.8433 52.9999 31.689 53.0377 31.55 53.11L31 53.38ZM37 50H27V42H29V45C29.0005 45.1705 29.0446 45.338 29.1281 45.4866C29.2115 45.6352 29.3316 45.7601 29.4769 45.8492C29.6222 45.9384 29.7878 45.989 29.9581 45.9961C30.1285 46.0032 30.2978 45.9667 30.45 45.89L32 45.12L33.55 45.89C33.6897 45.9604 33.8436 45.998 34 46C34.1871 45.9999 34.3706 45.9479 34.53 45.85C34.6741 45.7599 34.7929 45.6346 34.8751 45.4859C34.9574 45.3372 35.0003 45.1699 35 45V42H37V50ZM43 42H45V43.38L44.45 43.11C44.311 43.0377 44.1567 42.9999 44 42.9999C43.8433 42.9999 43.689 43.0377 43.55 43.11L43 43.38V42ZM49 60H39V52H41V55C41.0005 55.1705 41.0446 55.338 41.1281 55.4866C41.2115 55.6352 41.3316 55.7601 41.4769 55.8492C41.6222 55.9384 41.7878 55.989 41.9581 55.9961C42.1285 56.0032 42.2978 55.9667 42.45 55.89L44 55.12L45.55 55.89C45.6897 55.9604 45.8436 55.998 46 56C46.1871 55.9999 46.3706 55.9479 46.53 55.85C46.6741 55.7599 46.7929 55.6346 46.8751 55.4859C46.9574 55.3372 47.0003 55.1699 47 55V52H49V60ZM43 53.38V52H45V53.38L44.45 53.11C44.311 53.0377 44.1567 52.9999 44 52.9999C43.8433 52.9999 43.689 53.0377 43.55 53.11L43 53.38ZM49 50H39V42H41V45C41.0005 45.1705 41.0446 45.338 41.1281 45.4866C41.2115 45.6352 41.3316 45.7601 41.4769 45.8492C41.6222 45.9384 41.7878 45.989 41.9581 45.9961C42.1285 46.0032 42.2978 45.9667 42.45 45.89L44 45.12L45.55 45.89C45.6897 45.9604 45.8436 45.998 46 46C46.1871 45.9999 46.3706 45.9479 46.53 45.85C46.6741 45.7599 46.7929 45.6346 46.8751 45.4859C46.9574 45.3372 47.0003 45.1699 47 45V42H49V50Z" fill="#070D59"/>
<path d="M29.42 8.09L16.42 2.09C16.2879 2.03067 16.1448 2 16 2C15.8552 2 15.7121 2.03067 15.58 2.09L2.58 8.09C2.40761 8.1719 2.26178 8.30069 2.1592 8.46163C2.05662 8.62257 2.00145 8.80915 2 9V29C2 29.2652 2.10536 29.5196 2.29289 29.7071C2.48043 29.8946 2.73478 30 3 30H29C29.2652 30 29.5196 29.8946 29.7071 29.7071C29.8946 29.5196 30 29.2652 30 29V9C29.9986 8.80915 29.9434 8.62257 29.8408 8.46163C29.7382 8.30069 29.5924 8.1719 29.42 8.09ZM22 28H10V27H22V28ZM22 25H10V24H22V25ZM22 22H10V21H22V22ZM22 19H10V18H22V19ZM8 16V15H24V16H8ZM28 28H24V18H25C25.2652 18 25.5196 17.8946 25.7071 17.7071C25.8946 17.5196 26 17.2652 26 17V14C26 13.7348 25.8946 13.4804 25.7071 13.2929C25.5196 13.1054 25.2652 13 25 13H7C6.73478 13 6.48043 13.1054 6.29289 13.2929C6.10536 13.4804 6 13.7348 6 14V17C6 17.2652 6.10536 17.5196 6.29289 17.7071C6.48043 17.8946 6.73478 18 7 18H8V28H4V9.64L16 4.1L28 9.64V28Z" fill="#070D59"/>
<path d="M16 12C16.5933 12 17.1734 11.8241 17.6667 11.4944C18.1601 11.1648 18.5446 10.6962 18.7716 10.1481C18.9987 9.59987 19.0581 8.99667 18.9424 8.41473C18.8266 7.83279 18.5409 7.29824 18.1213 6.87868C17.7018 6.45912 17.1672 6.1734 16.5853 6.05765C16.0033 5.94189 15.4001 6.0013 14.8519 6.22836C14.3038 6.45543 13.8352 6.83994 13.5056 7.33329C13.1759 7.82664 13 8.40666 13 9C13 9.79565 13.3161 10.5587 13.8787 11.1213C14.4413 11.6839 15.2044 12 16 12ZM16 8C16.1978 8 16.3911 8.05865 16.5556 8.16853C16.72 8.27841 16.8482 8.43459 16.9239 8.61732C16.9996 8.80004 17.0194 9.00111 16.9808 9.19509C16.9422 9.38907 16.847 9.56726 16.7071 9.70711C16.5673 9.84696 16.3891 9.9422 16.1951 9.98079C16.0011 10.0194 15.8 9.99957 15.6173 9.92388C15.4346 9.84819 15.2784 9.72002 15.1685 9.55557C15.0586 9.39112 15 9.19778 15 9C15 8.73478 15.1054 8.48043 15.2929 8.29289C15.4804 8.10536 15.7348 8 16 8Z" fill="#070D59"/>
<path d="M61.42 8.09L48.42 2.09C48.2879 2.03067 48.1448 2 48 2C47.8552 2 47.7121 2.03067 47.58 2.09L34.58 8.09C34.4076 8.1719 34.2618 8.30069 34.1592 8.46163C34.0566 8.62257 34.0014 8.80915 34 9V29C34 29.2652 34.1054 29.5196 34.2929 29.7071C34.4804 29.8946 34.7348 30 35 30H61C61.2652 30 61.5196 29.8946 61.7071 29.7071C61.8946 29.5196 62 29.2652 62 29V9C61.9986 8.80915 61.9434 8.62257 61.8408 8.46163C61.7382 8.30069 61.5924 8.1719 61.42 8.09ZM54 28H42V27H54V28ZM54 25H42V24H54V25ZM54 22H42V21H54V22ZM54 19H42V18H54V19ZM40 16V15H56V16H40ZM60 28H56V18H57C57.2652 18 57.5196 17.8946 57.7071 17.7071C57.8946 17.5196 58 17.2652 58 17V14C58 13.7348 57.8946 13.4804 57.7071 13.2929C57.5196 13.1054 57.2652 13 57 13H39C38.7348 13 38.4804 13.1054 38.2929 13.2929C38.1054 13.4804 38 13.7348 38 14V17C38 17.2652 38.1054 17.5196 38.2929 17.7071C38.4804 17.8946 38.7348 18 39 18H40V28H36V9.64L48 4.1L60 9.64V28Z" fill="#070D59"/>
<path d="M45 9C45 9.59334 45.1759 10.1734 45.5056 10.6667C45.8352 11.1601 46.3038 11.5446 46.852 11.7716C47.4001 11.9987 48.0033 12.0581 48.5853 11.9424C49.1672 11.8266 49.7018 11.5409 50.1213 11.1213C50.5409 10.7018 50.8266 10.1672 50.9424 9.58527C51.0581 9.00333 50.9987 8.40013 50.7716 7.85195C50.5446 7.30377 50.1601 6.83524 49.6667 6.50559C49.1734 6.17595 48.5933 6 48 6C47.2044 6 46.4413 6.31607 45.8787 6.87868C45.3161 7.44129 45 8.20435 45 9ZM49 9C49 9.19778 48.9414 9.39112 48.8315 9.55557C48.7216 9.72002 48.5654 9.84819 48.3827 9.92388C48.2 9.99957 47.9989 10.0194 47.8049 9.98079C47.6109 9.9422 47.4327 9.84696 47.2929 9.70711C47.153 9.56725 47.0578 9.38907 47.0192 9.19509C46.9806 9.00111 47.0004 8.80004 47.0761 8.61732C47.1518 8.43459 47.28 8.27841 47.4444 8.16853C47.6089 8.05865 47.8022 8 48 8C48.2652 8 48.5196 8.10536 48.7071 8.29289C48.8946 8.48043 49 8.73478 49 9Z" fill="#070D59"/>
<path d="M59 32C58.7348 32 58.4804 32.1054 58.2929 32.2929C58.1054 32.4804 58 32.7348 58 33V50H54C53.7348 50 53.4804 50.1054 53.2929 50.2929C53.1054 50.4804 53 50.7348 53 51C53 51.2652 53.1054 51.5196 53.2929 51.7071C53.4804 51.8946 53.7348 52 54 52H59C59.2652 52 59.5196 51.8946 59.7071 51.7071C59.8946 51.5196 60 51.2652 60 51V33C60 32.7348 59.8946 32.4804 59.7071 32.2929C59.5196 32.1054 59.2652 32 59 32Z" fill="#070D59"/>
<path d="M10 50H6V33C6 32.7348 5.89464 32.4804 5.70711 32.2929C5.51957 32.1054 5.26522 32 5 32C4.73478 32 4.48043 32.1054 4.29289 32.2929C4.10536 32.4804 4 32.7348 4 33V51C4 51.2652 4.10536 51.5196 4.29289 51.7071C4.48043 51.8946 4.73478 52 5 52H10C10.2652 52 10.5196 51.8946 10.7071 51.7071C10.8946 51.5196 11 51.2652 11 51C11 50.7348 10.8946 50.4804 10.7071 50.2929C10.5196 50.1054 10.2652 50 10 50Z" fill="#070D59"/>
</svg>
